<?xml version="1.0" standalone="no"?>
<!DOCTYPE svg PUBLIC "-//W3C//DTD SVG 20010904//EN"
 "http://www.w3.org/TR/2001/REC-SVG-20010904/DTD/svg10.dtd">
<svg version="1.0" xmlns="http://www.w3.org/2000/svg"
 width="500.000000pt" height="500.000000pt" viewBox="0 0 500.000000 500.000000"
 preserveAspectRatio="xMidYMid meet">

<g transform="translate(0.000000,500.000000) scale(0.100000,-0.100000)"
fill="#000000" stroke="none">
<path d="M2215 4685 c-240 -25 -429 -85 -516 -162 -26 -24 -36 -26 -123 -27
-86 -1 -97 -3 -120 -25 -36 -34 -55 -104 -67 -251 -14 -179 -48 -303 -143
-532 -28 -68 -63 -130 -104 -185 -34 -44 -62 -84 -62 -89 0 -4 -6 -15 -14 -23
-11 -14 -37 -59 -83 -146 -60 -112 -113 -272 -145 -435 -28 -148 -28 -448 1
-600 46 -244 144 -468 301 -690 50 -71 52 -74 117 -233 88 -218 118 -330 133
-509 13 -149 30 -215 66 -249 23 -22 34 -24 120 -25 87 -1 97 -3 123 -27 81
-72 264 -133 480 -159 125 -15 459 -15 585 0 200 25 380 84 468 153 38 31 44
32 133 33 78 1 96 4 115 21 35 32 50 83 61 200 19 220 50 341 147 582 12 29
26 60 31 70 5 10 19 39 30 66 12 26 43 78 69 115 94 131 176 296 225 452 32
103 67 257 67 297 0 24 5 30 32 38 41 13 46 30 47 170 1 123 -10 155 -55 155
-21 0 -24 4 -24 36 0 43 -31 189 -61 289 -54 178 -143 350 -277 535 -34 46
-56 91 -98 200 -14 36 -32 81 -39 100 -44 109 -79 272 -94 445 -11 117 -26
168 -61 200 -19 17 -37 20 -115 21 -90 1 -93 2 -139 37 -89 68 -264 125 -451
147 -153 18 -418 20 -560 5z m455 -44 c157 -15 405 -87 473 -137 26 -19 33
-21 -117 26 -166 51 -274 64 -521 64 -163 0 -250 -4 -335 -18 -125 -19 -250
-50 -290 -72 -33 -17 -26 -17 35 2 107 33 341 56 550 56 110 -1 223 -5 250
-10 34 -6 2 -7 -105 -4 -297 8 -662 -45 -841 -124 -39 -17 -46 -30 -110 -204
-17 -47 -36 -98 -43 -115 -22 -58 -95 -181 -131 -220 -36 -40 -34 -33 7 35 28
45 78 148 78 159 0 5 9 30 19 57 11 27 36 102 57 167 47 148 68 178 165 234
70 40 254 90 379 103 106 10 367 11 480 1z m-111 -130 c9 -6 -31 -11 -105 -16
-132 -7 -433 -47 -532 -70 -78 -18 -95 -18 -61 0 39 21 230 62 349 74 58 6
119 13 135 15 65 7 201 5 214 -3z m-988 -150 c-6 -38 -13 -77 -17 -88 -4 -14
-4 -15 4 -3 5 8 22 53 38 100 31 93 32 96 39 88 3 -3 -10 -54 -28 -114 -19
-60 -42 -136 -52 -169 -9 -33 -39 -103 -67 -155 -48 -91 -141 -235 -160 -246
-4 -3 3 25 18 63 14 37 30 82 34 98 4 17 14 50 22 75 9 25 21 92 28 150 7 58
16 125 20 150 7 43 8 43 10 -25 1 -56 3 -65 11 -46 5 14 12 52 15 85 8 97 14
126 26 126 11 0 10 -8 -7 -180 l-6 -55 14 35 c8 19 22 71 32 115 10 44 20 85
23 90 12 19 13 -26 3 -94z m1757 -29 c11 -37 30 -103 42 -147 12 -44 31 -102
41 -129 11 -27 19 -52 19 -57 0 -5 13 -35 28 -67 38 -78 43 -92 33 -92 -12 0
-82 111 -110 175 -29 64 -55 167 -70 274 -7 46 -17 95 -22 109 -8 21 -7 23 5
13 7 -6 23 -42 34 -79z m-548 -52 c150 -36 350 -115 385 -152 7 -7 4 -7 -10 0
-24 12 -111 40 -215 70 -147 42 -242 55 -425 60 -151 3 -201 1 -310 -17 -142
-23 -249 -49 -363 -88 -41 -14 -76 -23 -78 -20 -6 6 165 80 246 105 187 60
284 72 515 67 126 -3 192 -10 255 -25z m615 -6 c8 -21 22 -55 29 -78 8 -23 28
-79 45 -125 37 -101 39 -120 6 -66 -31 49 -80 176 -89 230 -4 22 -9 48 -12 58
-9 31 5 18 21 -19z m-669 -184 c146 -25 307 -76 439 -140 96 -46 218 -121 261
-161 11 -10 24 -19 28 -19 9 0 83 -67 149 -135 306 -313 461 -691 461 -1125 0
-262 -45 -459 -161 -700 -373 -774 -1308 -1113 -2093 -758 -187 84 -320 177
-470 327 -112 112 -128 131 -196 231 -50 72 -137 233 -160 295 -84 223 -114
379 -115 600 0 331 89 629 269 898 237 354 626 609 1037 681 50 8 99 17 110
20 11 2 88 4 171 5 111 1 183 -4 270 -19z m1429 -1450 c4 -6 -5 -10 -19 -10
-14 0 -26 5 -26 10 0 6 9 10 19 10 11 0 23 -4 26 -10z m5 -30 c0 -5 -13 -10
-30 -10 -16 0 -30 5 -30 10 0 6 14 10 30 10 17 0 30 -4 30 -10z m0 -30 c0 -5
-11 -10 -24 -10 -14 0 -28 5 -31 10 -4 6 7 10 24 10 17 0 31 -4 31 -10z m-5
-30 c-3 -5 -15 -10 -25 -10 -10 0 -22 5 -25 10 -4 6 7 10 25 10 18 0 29 -4 25
-10z m0 -30 c-3 -5 -15 -10 -25 -10 -10 0 -22 5 -25 10 -4 6 7 10 25 10 18 0
29 -4 25 -10z m5 -30 c0 -5 -6 -10 -12 -10 -8 0 -9 -3 -3 -8 6 -4 11 -15 11
-24 1 -13 -6 -18 -25 -18 -20 0 -27 5 -27 20 0 11 4 20 9 20 5 0 4 7 -3 15
-11 13 -8 15 19 15 17 0 31 -4 31 -10z m-12 -87 c-10 -2 -26 -2 -35 0 -10 3
-2 5 17 5 19 0 27 -2 18 -5z m7 -23 c4 -6 -7 -10 -25 -10 -18 0 -29 4 -25 10
3 6 15 10 25 10 10 0 22 -4 25 -10z m-2781 -1193 c108 -152 162 -264 211 -442
16 -55 36 -119 46 -142 14 -34 15 -43 5 -43 -8 0 -18 17 -24 38 -16 55 -55
163 -57 160 -2 -2 4 -39 11 -83 22 -125 12 -131 -19 -10 -25 102 -84 291 -72
235 22 -108 56 -322 52 -327 -14 -14 -26 13 -32 78 -11 111 -23 138 -24 55 -1
-109 -16 -66 -35 99 -19 171 -38 242 -113 433 -12 28 9 8 51 -51z m2137 31
c-5 -13 -21 -47 -35 -75 -40 -79 -60 -141 -154 -478 -3 -11 -12 -29 -20 -40
-14 -19 -14 -19 -9 5 4 14 13 65 21 113 37 208 79 325 157 437 45 65 53 72 40
38z m-1996 -124 c68 -104 99 -171 160 -349 45 -130 68 -167 126 -203 205 -125
786 -166 1139 -81 46 11 100 27 119 35 42 18 62 18 36 1 -26 -18 -154 -62
-235 -81 -362 -85 -903 -33 -1095 105 -60 43 -75 70 -119 214 -50 161 -89 259
-137 340 -21 37 -39 69 -39 71 0 11 11 -1 45 -52z m201 -82 c-4 -3 -14 2 -24
12 -16 18 -16 18 6 6 13 -6 21 -14 18 -18z m1529 19 c-22 -21 -220 -113 -303
-141 -298 -100 -645 -98 -955 5 -110 37 -262 103 -254 112 3 2 19 -2 35 -11
120 -62 381 -132 552 -148 303 -27 588 26 860 159 70 35 79 38 65 24z m249
-28 c-9 -21 -28 -78 -44 -128 -15 -49 -37 -112 -47 -140 -11 -27 -23 -59 -27
-69 -3 -10 -9 -17 -11 -14 -6 6 36 170 60 238 23 66 66 150 76 150 5 0 2 -17
-7 -37z m-1444 -236 c175 -51 484 -67 675 -34 95 16 257 58 300 78 14 7 12 4
-4 -8 -14 -10 -45 -26 -70 -36 -309 -122 -665 -120 -984 5 -92 36 -111 54 -30
29 32 -10 83 -26 113 -34z m-125 -236 c186 -47 668 -62 905 -28 69 10 150 24
180 32 61 16 77 13 28 -5 -194 -70 -553 -99 -828 -66 -130 16 -285 49 -333 71
-32 15 -24 14 48 -4z m1230 -11 c-3 -5 -14 -10 -23 -10 -15 0 -15 2 -2 10 20
13 33 13 25 0z"/>
<path d="M2233 4033 c9 -2 25 -2 35 0 9 3 1 5 -18 5 -19 0 -27 -2 -17 -5z"/>
<path d="M2110 4019 c-141 -38 -216 -61 -257 -79 -249 -110 -448 -259 -602
-454 -60 -76 -131 -180 -131 -192 0 -3 -8 -18 -18 -32 -64 -94 -154 -374 -167
-518 -4 -50 -1 -44 19 44 73 316 199 558 405 776 60 63 242 213 288 237 16 8
30 17 33 20 6 8 146 79 220 111 47 21 112 41 280 87 l35 9 -35 0 c-19 0 -51
-4 -70 -9z"/>
<path d="M2295 3991 c-452 -50 -875 -324 -1107 -716 -32 -53 -106 -209 -126
-265 -107 -297 -112 -656 -12 -959 158 -483 553 -856 1038 -980 287 -74 613
-59 887 39 76 28 233 106 305 152 339 219 578 582 655 996 22 122 20 399 -4
522 -44 224 -113 392 -235 570 -68 99 -92 128 -205 238 -200 195 -441 321
-736 384 -101 21 -346 31 -460 19z m43 -67 c3 -28 0 -32 -28 -36 -36 -5 -40
-3 -40 33 0 29 12 39 45 36 15 -1 21 -10 23 -33z m122 6 c0 -27 -3 -30 -30
-30 -16 0 -30 3 -30 8 0 4 -3 17 -6 30 -6 20 -3 22 30 22 33 0 36 -2 36 -30z
m130 1 c0 -36 -10 -44 -45 -35 -19 5 -25 12 -25 35 0 26 3 29 35 29 32 0 35
-2 35 -29z m115 -16 c0 -27 -3 -30 -30 -30 -27 0 -30 4 -33 33 -3 32 -2 33 30
30 29 -3 33 -6 33 -33z m-489 -1 c7 -29 -7 -44 -42 -44 -14 0 -24 8 -28 23 -9
33 -8 35 17 40 43 8 47 7 53 -19z m592 10 c39 -11 26 -74 -14 -66 -31 6 -38
17 -30 48 7 26 9 27 44 18z m-714 -39 c9 -34 1 -45 -33 -45 -23 0 -30 5 -34
26 -3 19 1 28 17 34 34 14 43 11 50 -15z m849 -1 c12 -4 13 -11 5 -35 -11 -32
-25 -36 -52 -16 -13 10 -16 20 -12 35 7 22 30 28 59 16z m-965 -39 c16 -34 16
-32 -17 -43 -20 -7 -32 -7 -40 1 -17 17 -13 45 7 56 27 16 38 13 50 -14z
m1076 -8 c15 -11 16 -17 6 -39 -20 -43 -76 -15 -59 30 9 25 27 28 53 9z m-424
-22 c333 -41 633 -204 850 -464 61 -73 109 -147 168 -257 37 -69 75 -178 104
-299 19 -77 22 -118 22 -285 0 -168 -3 -207 -22 -285 -54 -218 -118 -351 -248
-520 -249 -324 -630 -511 -1039 -509 -362 2 -674 132 -929 387 -184 185 -297
392 -359 657 -31 136 -31 413 1 545 41 170 97 308 174 423 15 24 28 45 28 48
0 15 129 160 197 223 199 183 445 299 713 336 126 17 202 17 340 0z m-770 -14
c5 -11 10 -24 10 -29 0 -8 -50 -36 -55 -30 -8 10 -26 50 -23 52 9 8 44 25 50
26 4 0 12 -9 18 -19z m1303 -15 c20 -16 21 -26 4 -50 -12 -16 -17 -17 -38 -6
-13 7 -25 14 -27 15 -1 1 3 14 9 29 14 29 26 32 52 12z m-1415 -38 c34 -34
-14 -82 -50 -50 -24 21 -23 37 5 50 29 14 31 14 45 0z m1523 -27 c22 -18 22
-19 6 -45 -17 -25 -19 -25 -42 -10 -28 18 -30 26 -13 54 16 25 20 25 49 1z
m-1620 -53 c10 -18 8 -24 -11 -40 -23 -19 -24 -19 -44 1 -19 20 -19 21 -1 41
23 26 41 25 56 -2z m1722 -22 c22 -17 22 -29 -3 -51 -20 -18 -21 -18 -41 2
-17 17 -19 24 -10 42 13 24 28 26 54 7z m-1803 -75 c0 -3 -12 -14 -25 -24 -24
-17 -25 -17 -46 4 l-21 21 23 24 23 24 23 -22 c13 -12 23 -24 23 -27z m1900
-11 c8 -14 8 -26 0 -40 -14 -26 -31 -25 -53 1 -17 20 -18 22 -1 40 22 24 41
24 54 -1z m-2005 -50 c18 -20 18 -21 -5 -45 l-24 -25 -23 22 -23 22 22 23 c26
28 30 28 53 3z m2089 -36 c18 -26 18 -26 -2 -47 -21 -20 -22 -20 -42 -2 -24
22 -25 33 -3 57 21 23 24 23 47 -8z m-2171 -62 c14 -16 14 -19 -2 -41 -17 -23
-19 -23 -44 -6 -32 20 -32 23 -10 47 20 23 36 23 56 0z m2250 -38 c18 -24 18
-25 -5 -44 -23 -19 -23 -19 -40 1 -22 26 -22 33 -2 53 20 21 26 20 47 -10z
m-2313 -70 c0 -9 -24 -54 -29 -54 -3 0 -17 9 -30 19 -23 17 -23 19 -6 44 16
25 18 26 41 10 13 -8 24 -17 24 -19z m2384 -33 c15 -28 14 -30 -10 -46 -14 -9
-27 -15 -28 -13 -35 46 -35 50 -13 69 30 25 34 24 51 -10z m-2467 -56 c19 -14
21 -19 11 -41 -10 -21 -16 -24 -37 -19 -35 9 -35 10 -21 45 14 34 18 36 47 15z
m2523 -44 c16 -31 12 -47 -14 -59 -22 -10 -25 -8 -36 19 -11 26 -10 32 6 44
25 19 31 19 44 -4z m-2565 -100 c-9 -34 -9 -34 -44 -26 -36 8 -36 7 -16 45 14
27 17 28 41 18 21 -10 24 -16 19 -37z m2623 -30 c10 -27 8 -30 -19 -40 -27 -9
-31 -8 -40 17 -8 21 -7 29 7 39 27 20 41 16 52 -16z m-2665 -60 c4 -4 3 -20
-3 -35 -7 -20 -15 -26 -26 -22 -9 3 -22 6 -30 6 -17 0 -18 23 -3 51 10 19 41
19 62 0z m2706 -73 c1 -11 -9 -20 -24 -24 -30 -7 -30 -7 -39 28 -5 22 -2 28
22 36 28 9 40 -1 41 -40z m-2761 -34 c14 -4 22 -14 22 -28 0 -33 -13 -45 -43
-39 -27 5 -34 23 -21 57 7 18 9 18 42 10z m2787 -79 c0 -25 -4 -31 -26 -33
-22 -3 -28 2 -33 24 -8 30 7 46 39 42 15 -2 20 -11 20 -33z m-2793 -81 c-5
-37 -4 -36 -36 -28 -20 5 -26 12 -26 33 0 36 6 40 38 32 23 -6 26 -12 24 -37z
m2818 -38 c0 -30 -3 -34 -30 -38 -25 -4 -31 -1 -36 19 -9 36 2 53 36 53 27 0
30 -3 30 -34z m-2830 -81 c0 -32 -3 -35 -28 -35 -37 0 -39 4 -34 40 4 25 9 30
33 30 26 0 29 -3 29 -35z m2840 -46 c0 -39 -1 -40 -32 -37 -29 3 -33 7 -36 35
-3 32 5 39 51 42 13 1 17 -7 17 -40z m-2840 -75 c0 -34 -1 -35 -32 -32 -54 5
-53 68 2 68 28 0 30 -3 30 -36z m2840 -50 c0 -34 -1 -35 -32 -32 -29 3 -33 7
-36 36 -3 31 -2 32 32 32 35 0 36 -1 36 -36z m-2834 -69 c7 -30 7 -30 -27 -38
-22 -6 -28 -3 -33 16 -10 40 -7 47 24 47 23 0 31 -5 36 -25z m2821 -29 c6 -4
-14 -61 -20 -58 -4 1 -16 2 -27 2 -15 0 -20 7 -20 28 0 16 3 32 6 35 6 5 52 0
61 -7z m-2799 -98 c3 -22 -2 -29 -22 -34 -34 -8 -46 2 -46 37 0 28 2 30 33 27
26 -2 33 -8 35 -30z m2767 -48 c0 -32 -2 -35 -29 -33 -37 3 -39 6 -31 43 6 26
11 31 33 28 24 -3 27 -8 27 -38z m-2739 -66 c4 -17 2 -29 -7 -35 -24 -15 -46
-10 -53 14 -10 40 -7 47 24 47 24 0 31 -5 36 -26z m2704 -24 c11 -7 12 -15 4
-37 -8 -22 -16 -27 -34 -25 -35 4 -43 15 -29 45 13 28 33 34 59 17z m-2665
-90 c14 -27 14 -30 -4 -40 -31 -16 -48 -12 -55 13 -11 42 -7 49 36 56 4 0 14
-12 23 -29z m2610 -22 c28 -12 30 -20 15 -49 -11 -20 -36 -24 -59 -10 -12 8
-12 14 -1 40 14 36 11 34 45 19z m-2560 -88 c15 -29 15 -30 -11 -42 -23 -11
-28 -9 -44 12 -10 14 -16 28 -13 33 4 7 32 21 50 26 1 1 9 -13 18 -29z m2519
-70 c-15 -29 -16 -29 -44 -15 -28 14 -28 16 -14 45 15 29 16 29 44 15 28 -14
28 -16 14 -45z m-2466 -77 c-27 -29 -32 -29 -46 2 -17 36 -15 44 11 54 17 7
26 4 39 -12 16 -21 16 -23 -4 -44z m2401 10 l20 -18 -22 -27 c-22 -27 -22 -27
-46 -9 -24 18 -24 20 -8 45 21 31 28 32 56 9z m-2326 -69 c18 -24 18 -25 -5
-44 -30 -25 -30 -25 -50 7 -15 25 -15 27 6 44 27 23 28 23 49 -7z m2267 -49
c0 -7 -9 -20 -19 -29 -15 -14 -24 -15 -40 -6 -25 13 -26 27 -5 51 13 14 20 16
40 7 13 -6 24 -17 24 -23z m-2190 -47 c17 -21 17 -25 3 -40 -22 -24 -38 -22
-56 6 -14 21 -14 25 1 40 22 21 30 20 52 -6z m2110 -47 c-1 -3 -10 -17 -21
-30 -19 -23 -20 -23 -39 -6 -24 22 -25 33 -4 56 15 17 18 17 40 2 13 -8 24
-18 24 -22z m-2025 -41 c18 -20 18 -21 -3 -43 l-22 -21 -22 21 c-21 22 -21 23
-3 43 10 11 21 20 25 20 4 0 15 -9 25 -20z m1920 -30 c17 -19 17 -21 0 -40
-23 -26 -39 -25 -57 2 -14 20 -13 24 6 40 27 22 29 22 51 -2z m-1827 -48 c21
-16 21 -19 7 -40 -20 -27 -30 -28 -57 -2 -21 19 -21 20 -3 40 22 24 24 24 53
2z m1734 -37 c10 -21 8 -28 -8 -40 -26 -19 -30 -19 -49 8 -15 21 -14 23 6 40
28 23 37 22 51 -8z m-1622 -52 c0 -7 -5 -22 -12 -32 -12 -19 -20 -17 -67 16
-2 1 4 14 13 27 14 23 19 24 41 14 14 -6 25 -17 25 -25z m1521 -15 c10 -18 8
-24 -11 -40 -30 -24 -38 -23 -52 7 -10 21 -8 28 8 40 27 20 41 18 55 -7z
m-1428 -32 c15 -11 16 -18 6 -39 -8 -17 -17 -23 -30 -20 -30 8 -42 29 -29 52
12 24 28 26 53 7z m1317 -25 c5 -11 10 -24 10 -29 0 -8 -50 -36 -55 -30 -8 10
-26 50 -23 52 9 8 44 25 50 26 4 0 12 -9 18 -19z m-1215 -23 c28 -13 31 -26
12 -52 -12 -16 -17 -17 -38 -6 -13 7 -25 14 -27 15 -4 3 17 55 22 55 3 0 17
-5 31 -12z m1104 -34 c6 -15 10 -28 9 -29 -2 -1 -14 -8 -27 -15 -21 -11 -26
-10 -38 6 -18 24 -16 41 5 53 27 16 38 13 51 -15z m-962 -17 c2 -2 -2 -18 -8
-35 -10 -28 -12 -30 -40 -20 -31 11 -32 12 -22 46 5 20 10 23 36 18 17 -3 32
-8 34 -9z m847 -19 c9 -35 8 -38 -21 -49 -29 -11 -37 -6 -48 29 -5 17 -1 24
17 31 36 15 45 13 52 -11z m-732 -39 c-2 -13 -7 -28 -11 -32 -11 -12 -61 10
-61 27 0 34 11 43 43 37 27 -6 31 -11 29 -32z m608 19 c0 -7 3 -22 6 -34 5
-18 0 -22 -27 -28 -38 -7 -35 -9 -43 31 -7 29 -5 32 21 36 15 2 31 5 36 6 4 0
7 -5 7 -11z m-490 -44 c0 -36 -1 -36 -32 -30 -40 8 -42 10 -34 41 5 20 13 25
36 25 28 0 30 -3 30 -36z m106 16 c9 0 14 -11 14 -30 0 -26 -4 -30 -28 -30
-37 0 -39 3 -34 41 3 21 9 29 19 25 8 -3 21 -6 29 -6z m264 3 c0 -5 3 -18 6
-30 6 -21 3 -23 -35 -23 -39 0 -41 2 -41 30 0 28 3 30 35 30 19 0 35 -3 35 -7z
m-120 -33 c0 -28 -3 -30 -35 -30 -32 0 -35 2 -35 30 0 28 3 30 35 30 32 0 35
-2 35 -30z"/>
<path d="M2235 3780 c-224 -45 -403 -126 -564 -255 -164 -131 -259 -246 -350
-420 -185 -352 -189 -809 -11 -1167 23 -46 48 -90 56 -99 8 -8 14 -19 14 -24
0 -19 106 -148 188 -227 105 -101 224 -186 337 -238 98 -46 190 -80 213 -79 9
0 -14 11 -53 25 -242 84 -475 252 -619 449 -124 168 -187 308 -232 515 -26
119 -27 391 -1 505 69 302 222 554 452 741 389 316 947 371 1393 137 323 -169
566 -479 649 -828 10 -41 19 -61 21 -48 10 64 -103 333 -202 480 -109 162
-315 339 -497 425 -245 117 -546 158 -794 108z"/>
<path d="M2390 3717 c0 -7 5 -18 11 -24 14 -14 15 -71 1 -85 -17 -17 -15 -38
3 -38 8 0 14 8 12 18 -3 24 17 27 21 2 2 -14 11 -20 30 -20 l27 0 0 80 c0 55
-4 80 -12 80 -8 0 -10 -16 -6 -54 3 -30 2 -63 -1 -73 -7 -17 -8 -17 -22 1 -8
11 -14 32 -14 48 0 15 -4 28 -10 28 -5 0 -10 11 -10 25 0 16 -6 25 -15 25 -8
0 -15 -6 -15 -13z"/>
<path d="M2440 3709 c0 -11 5 -17 10 -14 6 3 10 13 10 21 0 8 -4 14 -10 14 -5
0 -10 -9 -10 -21z"/>
<path d="M2515 3650 c0 -47 4 -80 10 -80 6 0 10 33 10 80 0 47 -4 80 -10 80
-6 0 -10 -33 -10 -80z"/>
<path d="M2135 3650 c-37 -41 24 -97 63 -58 13 13 16 54 4 61 -4 3 -7 -9 -7
-26 0 -23 -5 -33 -19 -35 -10 -2 -22 0 -27 5 -6 6 -1 9 13 9 17 -1 23 5 23 19
0 14 -6 20 -22 19 -13 0 -23 1 -23 3 0 2 10 8 23 13 14 6 16 9 6 9 -9 1 -24
-8 -34 -19z"/>
<path d="M2738 3659 c-36 -21 -16 -79 27 -79 44 0 63 60 26 80 -24 12 -31 12
-53 -1z m52 -14 c18 -21 3 -55 -25 -55 -15 0 -26 7 -30 20 -7 23 10 50 30 50
7 0 18 -7 25 -15z"/>
<path d="M2744 3635 c-7 -18 3 -35 21 -35 18 0 26 15 19 34 -8 20 -33 21 -40
1z"/>
<path d="M1820 3566 c0 -8 5 -18 11 -22 11 -7 8 -66 -5 -96 -5 -11 -4 -18 3
-18 6 0 11 9 11 19 0 11 5 23 10 26 6 4 10 -5 10 -19 0 -23 4 -26 33 -26 l32
0 0 75 c0 48 -4 75 -11 75 -7 0 -11 -23 -10 -61 1 -70 -15 -88 -33 -38 -9 25
-8 38 4 62 18 37 18 37 0 37 -9 0 -15 -6 -14 -12 3 -26 -1 -39 -11 -33 -5 3
-10 15 -10 26 0 10 -4 19 -10 19 -5 0 -10 -6 -10 -14z"/>
<path d="M3030 3500 c0 -47 4 -80 10 -80 6 0 10 33 10 80 0 47 -4 80 -10 80
-6 0 -10 -33 -10 -80z"/>
<path d="M2375 3520 c-33 -5 -3 -7 90 -7 105 0 126 2 85 7 -65 9 -107 9 -175
0z"/>
<path d="M2250 3503 c-87 -14 -250 -84 -348 -149 -60 -41 -175 -144 -167 -152
2 -3 15 6 28 19 49 52 116 102 204 155 50 30 95 54 100 54 6 0 24 7 42 16 18
9 74 27 124 39 81 21 90 30 17 18z"/>
<path d="M2695 3486 c140 -37 213 -69 339 -150 65 -41 190 -164 242 -236 47
-65 114 -191 114 -214 0 -33 -19 -13 -52 57 -40 82 -139 218 -196 268 -91 81
-109 95 -168 130 -247 150 -555 184 -824 91 -132 -46 -274 -133 -358 -221 -17
-17 -20 -27 -12 -35 12 -12 12 -13 105 66 175 148 448 227 681 199 325 -40
595 -227 737 -511 15 -30 27 -60 27 -66 0 -10 -29 -24 -108 -55 -36 -14 -39
-12 -56 39 -25 74 -98 191 -158 251 -52 53 -164 141 -180 141 -16 0 -8 -31 10
-37 17 -6 76 -47 98 -69 7 -6 25 -21 40 -35 72 -61 194 -247 194 -294 0 -12
-58 -45 -79 -45 -3 0 -15 24 -25 53 -39 111 -134 237 -224 297 -48 32 -62 36
-62 20 0 -5 19 -22 43 -37 90 -56 196 -188 235 -291 l20 -52 -42 -12 c-22 -6
-44 -11 -48 -10 -5 1 -8 -2 -8 -8 0 -5 -7 -10 -15 -10 -9 0 -29 -7 -44 -15
-28 -14 -28 -14 -40 26 -7 23 -14 39 -17 36 -2 -2 0 -16 6 -31 14 -38 13 -56
-5 -56 -8 0 -34 -8 -58 -18 -23 -11 -69 -29 -102 -41 -33 -12 -75 -29 -94 -37
-18 -8 -36 -13 -39 -10 -6 7 28 79 42 88 6 4 21 5 33 1 18 -4 23 -1 23 15 0
21 14 35 37 38 6 1 9 -4 6 -12 -8 -21 15 -17 64 11 23 14 44 34 45 43 3 39 -5
68 -24 89 -16 17 -18 25 -9 41 21 39 11 44 -21 13 -37 -36 -78 -42 -78 -11 0
12 11 32 25 46 30 30 32 44 5 44 -24 0 -25 12 -6 43 8 12 17 38 21 57 4 19 16
54 27 79 10 24 16 46 14 48 -7 7 -61 -110 -58 -125 2 -7 -3 -11 -10 -10 -7 2
-12 -5 -12 -14 1 -10 -2 -16 -6 -13 -4 3 -10 -5 -13 -16 -5 -18 -11 -20 -32
-15 -27 7 -27 6 -24 -38 2 -24 2 -42 0 -40 -2 2 -13 -3 -22 -12 -18 -16 -20
-14 -39 31 -11 26 -17 52 -13 57 4 7 1 8 -6 4 -7 -5 -10 -14 -7 -22 4 -10 -4
-14 -33 -14 -59 0 -88 -28 -86 -82 2 -53 20 -88 43 -88 12 0 17 -9 18 -31 1
-17 -2 -25 -6 -19 -6 9 -9 9 -15 0 -4 -7 1 -13 14 -17 24 -6 26 -23 6 -77 -7
-21 -11 -46 -8 -55 3 -9 -5 -3 -18 13 -64 78 -85 98 -139 131 -32 19 -64 35
-72 35 -21 0 -98 69 -98 87 0 9 -6 13 -15 9 -10 -4 -19 2 -24 17 -13 34 -99
115 -130 122 -14 3 -38 21 -53 39 -15 18 -39 37 -54 40 -15 4 -41 18 -58 30
-17 13 -42 29 -55 36 l-24 12 20 -28 c12 -16 30 -38 42 -48 12 -11 21 -24 21
-30 0 -6 10 -22 21 -36 11 -14 17 -18 13 -10 -4 8 8 -1 26 -20 19 -19 41 -48
50 -65 9 -16 21 -29 29 -27 7 1 10 -2 7 -7 -3 -5 7 -17 22 -26 l27 -18 -19 24
c-11 13 -3 7 17 -13 20 -21 43 -38 53 -38 10 0 14 -5 10 -15 -3 -9 0 -15 8
-15 20 0 85 -62 109 -104 12 -21 27 -39 32 -38 6 0 18 -7 28 -15 23 -21 22 -5
-3 32 -18 27 -27 65 -15 65 10 0 111 -50 125 -62 57 -48 80 -118 39 -118 -25
0 -109 48 -109 62 0 5 -6 8 -12 5 -7 -2 -21 2 -30 11 -24 20 -23 0 0 -21 10
-10 22 -14 27 -10 4 5 5 3 1 -4 -8 -14 64 -70 100 -79 12 -3 25 -16 28 -29 9
-36 34 -55 71 -55 40 0 75 32 75 67 0 24 13 34 76 56 47 17 510 194 540 206
17 8 24 5 32 -12 11 -22 11 -22 9 2 -2 20 8 27 68 52 39 16 72 29 75 29 3 0
17 -39 30 -87 22 -79 25 -106 24 -253 -1 -148 -4 -173 -27 -247 -30 -95 -75
-194 -120 -261 -51 -78 -215 -235 -293 -280 -287 -170 -609 -182 -909 -36
-377 184 -589 632 -491 1039 33 137 73 227 148 338 36 53 41 77 18 77 -11 0
-96 -127 -122 -180 -81 -168 -102 -259 -101 -440 1 -199 35 -329 132 -495 39
-67 35 -61 93 -130 154 -178 328 -281 562 -331 101 -21 327 -14 431 14 159 43
324 140 441 259 213 216 308 491 275 793 -6 60 -17 126 -25 147 -24 71 -27 93
-13 93 27 0 67 -171 77 -330 l8 -115 -3 130 c-3 93 -10 152 -26 210 -31 116
-31 114 26 136 80 31 98 39 93 45 -3 2 -36 -7 -73 -21 -37 -14 -74 -24 -80
-21 -7 2 -26 33 -42 68 -89 191 -271 369 -473 465 -81 38 -186 72 -244 78 -42
4 -35 1 39 -19z m-901 -372 c5 -14 4 -15 -9 -4 -17 14 -19 20 -6 20 5 0 12 -7
15 -16z m107 -85 c11 -22 6 -24 -22 -9 -23 13 -26 42 -4 34 9 -4 20 -15 26
-25z m137 -82 c10 -9 19 -23 20 -30 0 -6 4 -22 7 -35 6 -19 5 -21 -11 -15 -33
12 -70 43 -87 73 l-17 29 34 -2 c19 -2 43 -10 54 -20z m497 -21 c24 -17 13
-52 -13 -41 -22 10 -42 10 -64 0 -14 -5 -18 -2 -18 12 0 41 56 58 95 29z m104
-92 c-6 -8 -18 -14 -25 -14 -22 0 -16 41 9 68 l22 24 3 -32 c2 -17 -2 -38 -9
-46z m-55 -7 c7 -20 6 -30 -4 -40 -10 -10 -11 -9 -5 3 5 8 -4 4 -19 -10 -23
-21 -29 -22 -36 -10 -14 22 -12 37 6 66 21 31 46 27 58 -9z m196 -7 c22 -22
25 -42 9 -71 -12 -23 -29 -16 -29 11 0 11 -11 22 -30 29 -32 11 -37 20 -18 39
18 18 45 15 68 -8z m-98 -39 c2 -22 2 -38 0 -36 -3 2 -11 -3 -19 -11 -21 -20
-37 -13 -41 19 -3 25 26 67 47 67 5 0 11 -18 13 -39z m129 -24 c-10 -9 -11 -8
-5 6 3 10 9 15 12 12 3 -3 0 -11 -7 -18z m-227 -33 c10 -25 7 -33 -14 -44 -17
-9 -22 -7 -29 12 -6 17 -4 26 8 35 21 16 28 16 35 -3z m-374 -35 c15 -28 5
-23 -15 7 -9 15 -12 23 -6 20 6 -4 16 -16 21 -27z m330 -63 c0 -8 2 -21 6 -29
4 -10 -3 -14 -23 -13 -22 1 -27 5 -25 21 6 31 42 49 42 21z m-35 -70 c12 -8
18 -25 17 -47 -1 -57 -56 -78 -99 -37 -28 26 -29 52 -3 78 23 23 58 26 85 6z"/>
<path d="M2001 2957 c2 -1 15 -11 29 -22 l25 -20 -19 23 c-11 12 -24 22 -29
22 -6 0 -8 -1 -6 -3z"/>
<path d="M2438 2523 c-38 -10 -8 -57 33 -51 21 3 48 32 39 42 -9 8 -55 14 -72
9z m45 -35 c-2 -5 -10 -8 -18 -8 -8 0 -16 3 -18 8 -3 4 5 7 18 7 13 0 21 -3
18 -7z"/>
<path d="M2402 3390 c0 -14 2 -19 5 -12 2 6 2 18 0 25 -3 6 -5 1 -5 -13z"/>
<path d="M2482 3390 c0 -14 2 -19 5 -12 2 6 2 18 0 25 -3 6 -5 1 -5 -13z"/>
<path d="M2321 3384 c0 -11 3 -14 6 -6 3 7 2 16 -1 19 -3 4 -6 -2 -5 -13z"/>
<path d="M2632 3380 c0 -14 2 -19 5 -12 2 6 2 18 0 25 -3 6 -5 1 -5 -13z"/>
<path d="M2240 3383 c0 -4 5 -15 10 -23 8 -13 10 -13 10 2 0 9 -4 20 -10 23
-5 3 -10 3 -10 -2z"/>
<path d="M2706 3365 c-9 -26 -7 -32 5 -12 6 10 9 21 6 23 -2 3 -7 -2 -11 -11z"/>
<path d="M1620 3354 c-12 -13 -10 -14 14 -3 19 9 29 10 38 1 8 -8 5 -9 -10 -5
-15 3 -24 0 -28 -12 -10 -25 11 -41 32 -24 15 12 17 12 12 -1 -7 -22 -40 -25
-55 -4 -7 10 -13 13 -13 8 0 -17 23 -34 45 -34 14 0 26 10 33 26 9 19 9 24 0
18 -7 -5 -9 -2 -5 8 12 33 -39 52 -63 22z"/>
<path d="M3250 3355 c-7 -9 -10 -18 -6 -22 3 -3 6 -1 6 5 0 17 39 25 55 12 9
-8 15 -8 15 -2 0 23 -52 29 -70 7z"/>
<path d="M2170 3355 c0 -5 5 -17 10 -25 5 -8 10 -10 10 -5 0 6 -5 17 -10 25
-5 8 -10 11 -10 5z"/>
<path d="M2776 3333 c-6 -14 -5 -15 5 -6 7 7 10 15 7 18 -3 3 -9 -2 -12 -12z"/>
<path d="M3263 3334 c-3 -8 -1 -20 6 -27 14 -14 47 15 37 32 -10 16 -36 13
-43 -5z"/>
<path d="M2097 3320 c3 -11 9 -20 15 -20 5 0 4 9 -2 20 -6 11 -12 20 -14 20
-2 0 -2 -9 1 -20z"/>
<path d="M2325 3320 c-124 -22 -265 -94 -361 -182 -65 -60 -43 -65 29 -7 101
82 189 125 315 154 118 28 313 15 410 -26 42 -18 62 -18 62 1 0 5 -37 21 -82
35 -66 21 -108 28 -203 30 -66 2 -143 0 -170 -5z"/>
<path d="M2846 3304 c-4 -9 -4 -19 -1 -22 2 -3 7 3 11 12 4 9 4 19 1 22 -2 3
-7 -3 -11 -12z"/>
<path d="M3240 3314 c-1 -33 69 -45 78 -14 4 12 2 13 -9 3 -19 -18 -46 -16
-58 5 -6 9 -11 12 -11 6z"/>
<path d="M2030 3288 c0 -9 5 -20 10 -23 13 -8 13 5 0 25 -8 13 -10 13 -10 -2z"/>
<path d="M2906 3264 c-4 -10 -1 -14 6 -12 15 5 23 28 10 28 -5 0 -13 -7 -16
-16z"/>
<path d="M1965 3240 c10 -11 20 -18 23 -15 7 6 -18 35 -31 35 -5 0 -2 -9 8
-20z"/>
<path d="M2973 3225 c-9 -24 1 -27 15 -5 8 13 8 20 2 20 -6 0 -13 -7 -17 -15z"/>
<path d="M2308 3211 c-107 -30 -204 -82 -279 -150 -21 -20 -27 -31 -19 -36 7
-4 15 -3 19 2 11 17 115 90 156 110 22 11 75 30 118 42 67 20 95 22 185 19 70
-4 128 -12 167 -25 33 -12 63 -19 68 -16 19 11 2 24 -60 43 -97 31 -264 36
-355 11z"/>
<path d="M1904 3195 c8 -8 18 -15 22 -15 3 0 1 7 -6 15 -7 8 -17 15 -22 15 -5
0 -3 -7 6 -15z"/>
<path d="M1457 3188 c-2 -7 2 -25 10 -40 11 -24 11 -33 -2 -64 -18 -45 -18
-44 0 -44 9 0 15 10 15 26 0 14 4 23 10 19 6 -3 10 -15 10 -26 0 -10 7 -19 15
-19 19 0 19 -2 -5 44 -17 35 -18 41 -5 67 17 33 19 49 5 49 -5 0 -10 -11 -10
-25 0 -14 -4 -25 -10 -25 -5 0 -10 11 -10 25 0 26 -15 34 -23 13z"/>
<path d="M3040 3178 c-12 -22 -12 -22 6 -6 10 10 15 20 12 24 -4 3 -12 -5 -18
-18z"/>
<path d="M1671 3139 c-104 -140 -151 -238 -192 -399 -32 -122 -32 -339 0 -460
102 -393 384 -670 774 -760 83 -19 115 -22 244 -17 178 6 264 26 408 96 170
83 316 210 410 356 40 63 102 193 110 231 5 29 5 29 -6 4 -98 -210 -140 -276
-240 -381 -49 -51 -142 -129 -155 -129 -4 0 -15 -6 -23 -14 -25 -22 -149 -82
-221 -106 -188 -63 -432 -64 -627 -1 -242 78 -485 292 -591 521 -85 183 -115
373 -88 558 27 184 79 313 183 460 45 63 57 100 14 41z"/>
<path d="M3429 3168 c-6 -28 -1 -158 6 -158 6 0 10 33 10 80 0 44 -3 80 -7 80
-5 0 -8 -1 -9 -2z"/>
<path d="M3475 3162 c-13 -10 -14 -152 0 -152 6 0 10 32 10 80 0 44 0 80 0 80
0 0 -4 -4 -10 -8z"/>
<path d="M1840 3152 c0 -12 19 -26 26 -19 2 2 -2 10 -11 17 -9 8 -15 8 -15 2z"/>
<path d="M3090 3125 c-7 -8 -8 -15 -2 -15 5 0 15 7 22 15 7 8 8 15 2 15 -5 0
-15 -7 -22 -15z"/>
<path d="M2375 3120 c-93 -19 -244 -95 -285 -145 -21 -25 5 -17 45 15 20 16
71 46 113 66 68 32 88 37 177 41 90 5 157 -2 223 -22 12 -4 22 -3 22 2 0 30
-207 60 -295 43z"/>
<path d="M3140 3065 c-7 -8 -8 -15 -2 -15 5 0 15 7 22 15 7 8 8 15 2 15 -5 0
-15 -7 -22 -15z"/>
<path d="M1744 3025 c21 -16 32 -13 21 4 -3 6 -14 11 -23 11 -15 -1 -15 -2 2
-15z"/>
<path d="M2750 3031 c0 -5 12 -17 27 -26 56 -37 115 -101 150 -162 19 -35 37
-62 40 -59 12 12 -83 149 -139 200 -60 54 -78 65 -78 47z"/>
<path d="M2390 3019 c-54 -9 -146 -46 -175 -71 -71 -59 -72 -82 -2 -28 66 49
152 80 234 83 62 2 78 9 47 21 -19 7 -32 6 -104 -5z"/>
<path d="M3190 3010 c-8 -5 -11 -12 -7 -16 4 -4 13 -2 19 4 15 15 7 24 -12 12z"/>
<path d="M1702 2964 c10 -10 20 -15 24 -12 3 4 -5 12 -18 18 -22 12 -22 12 -6
-6z"/>
<path d="M1823 2969 c-15 -20 -63 -127 -63 -142 0 -7 18 22 40 63 37 69 49
111 23 79z"/>
<path d="M3230 2940 c-8 -5 -10 -10 -5 -10 6 0 17 5 25 10 8 5 11 10 5 10 -5
0 -17 -5 -25 -10z"/>
<path d="M1666 2896 c10 -8 21 -12 24 -10 5 6 -21 24 -34 24 -6 0 -1 -6 10
-14z"/>
<path d="M1891 2874 c-19 -41 -51 -135 -50 -148 0 -6 10 17 23 51 13 35 29 69
36 77 6 8 10 23 8 32 -2 14 -6 11 -17 -12z"/>
<path d="M3260 2870 c-13 -8 -13 -10 2 -10 9 0 20 5 23 10 8 13 -5 13 -25 0z"/>
<path d="M1327 2842 c-23 -25 -21 -55 4 -70 17 -11 25 -11 45 3 29 19 30 39 4
65 -25 25 -32 25 -53 2z m58 -23 c7 -22 -1 -39 -18 -39 -8 0 -7 3 2 9 17 11 7
41 -14 41 -21 0 -31 -30 -14 -42 12 -8 11 -9 -1 -5 -22 6 -25 39 -5 53 21 16
42 8 50 -17z"/>
<path d="M3558 2849 c-23 -13 -23 -24 4 -51 l21 -21 -24 6 c-23 6 -23 5 -5 -8
25 -19 28 -19 52 0 18 14 18 15 0 8 -18 -6 -18 -5 0 22 17 27 17 28 -1 41 -22
16 -25 17 -47 3z m45 -16 c3 -5 -8 -8 -23 -8 -15 0 -26 3 -23 8 2 4 13 7 23 7
10 0 21 -3 23 -7z"/>
<path d="M1625 2830 c3 -5 14 -10 23 -10 15 0 15 2 2 10 -20 13 -33 13 -25 0z"/>
<path d="M1976 2811 c-13 -20 -25 -62 -17 -57 5 3 14 19 19 36 10 29 9 40 -2
21z"/>
<path d="M1741 2769 c-7 -22 -11 -43 -8 -45 2 -2 9 14 16 37 7 22 11 43 8 45
-2 2 -9 -14 -16 -37z"/>
<path d="M3290 2800 c-13 -8 -13 -10 2 -10 9 0 20 5 23 10 8 13 -5 13 -25 0z"/>
<path d="M1600 2756 c0 -2 9 -6 20 -9 11 -3 18 -1 14 4 -5 9 -34 13 -34 5z"/>
<path d="M3318 2733 c-10 -2 -18 -8 -18 -13 0 -4 9 -6 20 -3 11 3 20 9 20 14
0 5 -1 8 -2 8 -2 -1 -11 -3 -20 -6z"/>
<path d="M3735 2528 c0 -267 -20 -365 -118 -568 -101 -211 -253 -385 -446
-513 -160 -106 -299 -161 -498 -197 -91 -17 -98 -19 -43 -16 118 9 284 57 412
121 257 129 481 360 597 615 83 184 128 416 117 600 -12 192 -21 174 -21 -42z"/>
<path d="M1580 2680 c0 -5 10 -10 23 -10 18 0 19 2 7 10 -19 13 -30 13 -30 0z"/>
<path d="M3320 2650 c0 -5 6 -10 14 -10 8 0 18 5 21 10 3 6 -3 10 -14 10 -12
0 -21 -4 -21 -10z"/>
<path d="M1275 2540 l0 -80 33 0 c28 0 32 3 32 27 0 28 10 26 14 -3 2 -10 9
-20 16 -22 10 -4 11 3 5 24 -9 38 -10 83 0 112 5 14 3 22 -4 22 -6 0 -11 -9
-11 -19 0 -11 -4 -23 -10 -26 -6 -4 -10 5 -10 19 0 23 -4 26 -32 26 l-33 0 0
-80z m59 14 c7 -26 -8 -64 -24 -64 -6 0 -10 25 -10 56 0 47 2 55 14 45 8 -7
17 -23 20 -37z"/>
<path d="M1578 2603 c7 -3 16 -2 19 1 4 3 -2 6 -13 5 -11 0 -14 -3 -6 -6z"/>
<path d="M3555 2525 c0 -53 4 -75 13 -75 8 0 12 22 12 75 0 53 -4 75 -12 75
-9 0 -13 -22 -13 -75z"/>
<path d="M3595 2525 c0 -53 4 -75 13 -75 8 0 12 22 12 75 0 53 -4 75 -12 75
-9 0 -13 -22 -13 -75z"/>
<path d="M3635 2525 c0 -43 4 -75 10 -75 6 0 10 32 10 75 0 43 -4 75 -10 75
-6 0 -10 -32 -10 -75z"/>
<path d="M3320 2570 c0 -13 20 -13 40 0 12 8 9 10 -12 10 -16 0 -28 -4 -28
-10z"/>
<path d="M1700 2525 c-38 -45 41 -332 123 -448 19 -29 19 -29 0 -17 -11 7 -35
35 -53 61 -38 57 -47 63 -24 17 195 -389 664 -550 1063 -367 152 70 271 182
364 341 41 70 33 69 -23 -5 -47 -63 -94 -108 -58 -57 79 113 134 263 145 390
4 49 2 74 -7 85 -11 13 -51 15 -265 15 -190 0 -255 -3 -262 -12 -5 -7 -15 -38
-22 -69 -22 -105 -105 -169 -217 -169 -111 0 -193 69 -214 181 -6 29 -16 57
-23 61 -6 4 -125 8 -263 8 -213 0 -253 -2 -264 -15z m523 -39 c21 -128 118
-214 244 -215 120 -2 217 83 238 207 l7 42 171 -1 c95 -1 186 -5 202 -9 17 -4
-52 -8 -162 -9 -180 -1 -193 -2 -193 -19 0 -46 -36 -119 -81 -164 -145 -145
-397 -71 -439 130 l-11 52 -192 1 c-110 1 -179 5 -162 9 17 4 107 8 201 9
l171 1 6 -34z m-193 -43 c0 -47 -32 -118 -58 -132 -32 -17 -89 -13 -131 9 -63
32 -63 69 1 70 41 0 71 17 97 56 19 27 30 34 57 34 33 0 34 -2 34 -37z m103
20 c3 -10 8 -30 11 -45 4 -17 13 -28 24 -28 15 0 15 -2 2 -10 -8 -5 -10 -10
-4 -10 5 0 15 5 21 11 17 17 35 1 33 -29 -4 -51 -12 -45 139 -109 18 -7 65
-18 103 -23 38 -4 77 -15 87 -24 10 -9 22 -16 27 -16 13 0 49 -48 57 -75 31
-103 -3 -189 -95 -236 -73 -37 -171 -13 -222 54 -21 27 -29 52 -34 101 l-7 65
-22 -17 -22 -17 28 -83 c39 -113 53 -127 161 -158 l45 -13 -55 0 c-65 -1 -116
20 -206 85 -70 49 -94 85 -96 140 -1 25 -7 38 -18 41 -9 2 -29 19 -45 37 l-29
33 -32 -33 c-22 -24 -40 -34 -60 -34 -24 1 -26 2 -12 10 23 14 12 47 -18 54
-19 5 -24 13 -24 36 0 23 -5 31 -25 36 -14 3 -25 8 -25 9 0 19 19 38 48 51 28
12 42 12 71 3 20 -6 41 -16 48 -21 8 -6 13 0 18 20 8 38 62 102 86 102 25 0
24 -7 -7 -34 l-27 -23 30 -21 c26 -18 34 -20 55 -10 l25 12 -33 46 c-19 27
-35 63 -39 93 -7 43 -6 47 13 47 11 0 23 -8 25 -17z m721 -4 c28 -16 45 -19
75 -14 22 4 42 13 45 21 7 18 36 18 36 0 0 -15 -75 -56 -103 -56 -26 0 -82 30
-95 51 -16 25 -2 24 42 -2z m-963 -5 c12 -15 11 -16 -11 -9 -22 7 -23 6 -11
-9 16 -19 12 -29 -8 -17 -8 5 -11 17 -6 30 8 25 18 27 36 5z m1186 -16 c-44
-66 -100 -98 -172 -98 -68 0 -165 54 -165 92 0 23 15 23 32 0 31 -43 74 -62
139 -62 51 0 70 5 100 26 21 14 45 37 54 51 9 14 19 22 22 19 3 -3 -1 -16 -10
-28z m60 -30 c-37 -64 -72 -95 -133 -118 -65 -24 -126 -26 -185 -5 -46 17
-109 60 -109 76 0 15 26 10 41 -7 25 -30 98 -54 164 -54 88 0 158 37 204 108
41 61 54 61 18 0z m10 -110 c-37 -88 -218 -136 -349 -92 -58 19 -124 58 -131
78 -3 7 -2 19 3 26 6 10 16 6 43 -14 118 -90 296 -86 401 10 21 19 40 33 43
31 2 -3 -2 -20 -10 -39z m-537 -52 c0 -2 -9 -6 -20 -9 -11 -3 -20 -1 -20 4 0
5 9 9 20 9 11 0 20 -2 20 -4z m-5 -36 c-3 -5 -12 -7 -20 -3 -21 7 -19 13 6 13
11 0 18 -4 14 -10z m485 -39 c0 -4 -15 -11 -32 -15 -18 -3 -64 -13 -103 -21
l-70 -14 60 4 c33 2 75 7 93 11 l34 7 -15 -30 c-30 -58 -185 -203 -196 -184
-12 20 -58 23 -75 6 -15 -16 -15 -19 -1 -35 18 -20 9 -33 -15 -20 -47 25 -72
107 -50 165 11 29 68 85 87 85 7 0 10 6 7 14 -5 12 7 14 68 10 49 -4 87 -1
118 9 52 17 90 21 90 8z m-350 -21 c0 -11 -4 -20 -10 -20 -5 0 -10 9 -10 20 0
11 5 20 10 20 6 0 10 -9 10 -20z m30 0 c0 -11 -4 -20 -10 -20 -5 0 -10 9 -10
20 0 11 5 20 10 20 6 0 10 -9 10 -20z m-73 -92 c-2 -13 -4 -3 -4 22 0 25 2 35
4 23 2 -13 2 -33 0 -45z m-747 -77 c90 -88 226 -161 360 -192 77 -18 241 -16
325 4 144 34 260 101 375 216 83 85 84 85 37 24 -89 -117 -198 -193 -354 -248
-72 -26 -89 -28 -228 -28 -141 0 -155 2 -230 29 -125 46 -212 100 -290 180
-38 39 -78 87 -89 105 -18 33 -17 32 15 -6 18 -22 54 -60 79 -84z m70 47 c0
-17 -3 -18 -14 -8 -8 6 -12 18 -9 26 7 19 23 7 23 -18z m22 0 c-9 -9 -12 -7
-12 12 0 19 3 21 12 12 9 -9 9 -15 0 -24z m47 -55 c7 -27 22 -58 33 -70 24
-25 9 -32 -16 -8 -8 8 -18 15 -23 15 -4 1 -20 11 -35 23 l-28 23 23 32 c12 17
24 32 27 32 3 0 12 -21 19 -47z m590 -115 c1 -27 -18 -22 -25 6 -8 32 6 58 17
30 4 -10 8 -27 8 -36z m39 19 c2 -15 -1 -27 -7 -27 -6 0 -11 6 -11 14 0 8 -3
22 -7 32 -4 12 -2 15 8 12 8 -2 15 -17 17 -31z m-64 -48 c-8 -14 -76 -29 -124
-28 -25 1 -36 3 -25 6 45 10 125 46 125 57 0 6 7 2 15 -8 8 -10 12 -23 9 -27z"/>
<path d="M1936 2412 c-22 -27 -24 -32 -7 -17 20 17 47 55 39 55 -2 0 -16 -17
-32 -38z"/>
<path d="M1964 2348 l-19 -23 23 19 c21 18 27 26 19 26 -2 0 -12 -10 -23 -22z"/>
<path d="M1903 2323 c9 -2 23 -2 30 0 6 3 -1 5 -18 5 -16 0 -22 -2 -12 -5z"/>
<path d="M2195 2349 c-4 -6 -5 -12 -2 -15 2 -3 7 2 10 11 7 17 1 20 -8 4z"/>
<path d="M2037 2283 c-9 -8 -9 -106 -1 -127 5 -13 10 -12 35 6 23 17 29 30 29
58 0 47 -40 87 -63 63z"/>
<path d="M1862 2244 c-22 -15 -22 -17 -5 -29 24 -18 72 7 73 38 0 13 -45 7
-68 -9z"/>
<path d="M2146 2244 c-19 -18 -19 -20 -6 -45 6 -10 21 -19 33 -19 l22 1 -24
20 c-18 15 -21 23 -13 31 8 8 15 8 27 -2 10 -8 15 -9 15 -2 0 6 -9 16 -19 22
-15 7 -23 6 -35 -6z"/>
<path d="M1935 2230 c-8 -25 10 -50 36 -50 25 0 25 32 1 53 -24 22 -29 21 -37
-3z"/>
<path d="M2230 2242 c0 -5 10 -13 23 -17 21 -7 21 -7 2 -12 -28 -7 -39 -19
-24 -28 8 -6 10 -4 5 6 -4 8 1 5 11 -7 42 -49 173 -119 173 -93 0 5 13 9 29 9
23 0 30 5 34 28 3 15 9 36 13 46 7 18 4 19 -47 13 -30 -4 -66 -16 -81 -27 -39
-29 -70 -13 -61 30 4 24 2 30 -11 30 -9 0 -28 7 -41 16 -14 9 -25 12 -25 6z"/>
<path d="M2330 2189 c0 -20 1 -20 23 -6 13 8 34 17 48 20 13 2 3 5 -23 6 -43
1 -48 -1 -48 -20z"/>
<path d="M1890 2175 c0 -18 5 -25 19 -25 24 0 33 13 25 34 -10 27 -44 20 -44
-9z m30 -5 c0 -5 -4 -10 -10 -10 -5 0 -10 5 -10 10 0 6 5 10 10 10 6 0 10 -4
10 -10z"/>
<path d="M2515 2162 c-17 -40 -23 -82 -12 -89 6 -4 7 -1 3 8 -4 8 3 1 17 -14
19 -23 31 -28 58 -25 29 3 34 6 31 27 -3 28 -44 86 -71 101 -15 7 -21 6 -26
-8z"/>
<path d="M1941 2146 c-9 -16 -10 -29 -3 -41 9 -16 11 -16 31 4 11 11 21 30 21
41 0 28 -34 26 -49 -4z"/>
<path d="M2081 2146 l-23 -25 33 -20 c28 -17 109 -30 109 -17 0 28 -26 64 -54
74 -42 15 -39 16 -65 -12z"/>
<path d="M2200 2158 c1 -7 6 -25 13 -40 l12 -28 28 19 29 18 -35 22 c-40 24
-47 26 -47 9z"/>
<path d="M2315 2090 c-11 -17 -8 -96 5 -120 l11 -21 31 26 c46 39 44 78 -4
105 -24 13 -39 17 -43 10z"/>
<path d="M2463 2057 c35 -29 16 -48 -26 -25 -21 11 -21 10 -6 -12 21 -31 33
-34 53 -14 25 24 17 58 -14 62 -23 2 -24 1 -7 -11z"/>
<path d="M2518 1996 c-24 -30 -24 -32 -9 -70 l17 -38 32 27 c31 26 68 92 57
103 -2 3 -20 6 -39 7 -27 1 -39 -5 -58 -29z"/>
<path d="M2372 1959 c-27 -17 -30 -24 -20 -36 21 -25 66 -43 109 -43 33 0 40
3 35 16 -3 9 -9 26 -12 39 -3 13 -15 25 -27 28 -12 2 -29 7 -37 11 -8 3 -30
-4 -48 -15z"/>
<path d="M2791 2094 l-22 -16 21 -23 c19 -20 25 -22 44 -12 11 7 22 13 24 13
1 1 -3 13 -9 28 -14 30 -26 32 -58 10z"/>
<path d="M2871 2090 c0 -3 6 -25 13 -50 8 -25 15 -36 15 -25 0 17 -26 88 -28
75z"/>
<path d="M2746 2044 c-8 -20 -8 -78 0 -98 5 -14 8 -14 30 1 31 20 33 68 2 94
-26 23 -24 23 -32 3z"/>
<path d="M2826 2005 c-4 -12 17 -45 30 -45 2 0 4 14 4 30 0 32 -23 42 -34 15z"/>
<path d="M1573 2523 c9 -2 23 -2 30 0 6 3 -1 5 -18 5 -16 0 -22 -2 -12 -5z"/>
<path d="M3333 2493 c9 -2 23 -2 30 0 6 3 -1 5 -18 5 -16 0 -22 -2 -12 -5z"/>
<path d="M2370 2463 c0 -6 14 -23 31 -37 40 -34 88 -34 126 -1 17 15 21 23 11
19 -10 -3 -18 -10 -18 -15 0 -4 -15 -11 -34 -14 -37 -7 -88 13 -105 42 -6 10
-11 13 -11 6z"/>
<path d="M2588 2440 c-17 -31 -84 -70 -118 -70 -34 0 -94 29 -117 58 -12 15
-22 22 -23 15 0 -27 51 -71 96 -82 73 -19 138 9 171 72 19 38 12 44 -9 7z"/>
<path d="M2290 2426 c0 -20 53 -77 90 -96 46 -24 114 -26 162 -5 35 14 98 76
98 96 0 5 -14 -6 -30 -25 -39 -44 -87 -66 -146 -66 -54 0 -120 33 -153 77 -11
16 -21 24 -21 19z"/>
<path d="M3320 2420 c0 -5 12 -10 28 -10 21 0 24 2 12 10 -20 13 -40 13 -40 0z"/>
<path d="M3452 2338 c-24 -119 -24 -124 -13 -108 12 17 35 142 30 159 -2 6
-10 -16 -17 -51z"/>
<path d="M1588 2373 c6 -2 18 -2 25 0 6 3 1 5 -13 5 -14 0 -19 -2 -12 -5z"/>
<path d="M3320 2340 c19 -13 30 -13 30 0 0 6 -10 10 -22 10 -19 0 -20 -2 -8
-10z"/>
<path d="M1605 2300 c-16 -7 -17 -9 -3 -9 9 -1 20 4 23 9 7 11 7 11 -20 0z"/>
<path d="M3295 2270 c3 -5 16 -10 28 -10 18 0 19 2 7 10 -20 13 -43 13 -35 0z"/>
<path d="M1328 2249 c-23 -13 -24 -65 -2 -73 32 -12 55 -6 66 19 9 21 8 28 -7
45 -20 22 -32 24 -57 9z m52 -14 c20 -24 3 -57 -28 -53 -30 3 -41 30 -22 53
16 19 34 19 50 0z"/>
<path d="M1336 2224 c-7 -19 1 -34 19 -34 21 0 28 19 15 35 -16 19 -26 19 -34
-1z"/>
<path d="M3606 2235 c7 -18 6 -18 -9 -6 -13 10 -20 11 -31 1 -18 -14 -10 -40
13 -40 23 0 46 39 31 54 -8 8 -9 6 -4 -9z"/>
<path d="M1628 2223 c7 -3 16 -2 19 1 4 3 -2 6 -13 5 -11 0 -14 -3 -6 -6z"/>
<path d="M3270 2200 c0 -4 9 -10 20 -13 11 -3 20 -2 20 3 0 4 -9 10 -20 13
-11 3 -20 2 -20 -3z"/>
<path d="M3604 2191 c-5 -5 -18 -11 -29 -14 l-20 -5 20 -1 c22 -1 52 15 44 23
-3 3 -10 2 -15 -3z"/>
<path d="M1654 2155 c-17 -13 -17 -14 -2 -15 9 0 20 5 23 11 11 17 0 20 -21 4z"/>
<path d="M3240 2130 c0 -7 24 -20 36 -20 13 0 1 19 -16 23 -11 3 -20 2 -20 -3z"/>
<path d="M1690 2090 c-8 -5 -11 -12 -7 -16 4 -4 15 0 24 9 18 18 8 23 -17 7z"/>
<path d="M3214 2055 c21 -16 32 -13 21 4 -3 6 -14 11 -23 11 -15 -1 -15 -2 2
-15z"/>
<path d="M1360 2027 c0 -11 30 -140 33 -143 2 -3 10 23 16 56 16 80 36 80 28
0 -3 -42 -2 -60 6 -60 8 0 12 25 12 75 l0 75 -28 0 c-21 0 -28 -5 -26 -17 1
-10 0 -31 -1 -48 -1 -26 -3 -27 -10 -10 -5 11 -9 32 -9 48 -1 15 -5 27 -11 27
-5 0 -10 -1 -10 -3z"/>
<path d="M1475 1955 c0 -43 4 -75 10 -75 6 0 10 32 10 75 0 43 -4 75 -10 75
-6 0 -10 -32 -10 -75z"/>
<path d="M1515 1955 c0 -41 3 -75 8 -75 4 0 7 34 7 75 0 41 -3 75 -7 75 -5 0
-8 -34 -8 -75z"/>
<path d="M1725 2019 c-11 -17 -2 -18 19 -3 17 12 17 14 4 14 -9 0 -20 -5 -23
-11z"/>
<path d="M3160 2001 c0 -10 30 -24 37 -17 3 2 -5 9 -16 16 -12 6 -21 7 -21 1z"/>
<path d="M3405 1900 c0 -54 4 -80 12 -80 7 0 11 26 11 80 0 54 -4 80 -11 80
-8 0 -12 -26 -12 -80z"/>
<path d="M3440 1973 c1 -5 9 -42 19 -83 l18 -75 12 60 c7 33 15 70 18 83 3 12
0 22 -6 22 -6 0 -11 -15 -11 -32 0 -18 -5 -40 -10 -48 -7 -11 -10 -2 -10 33 0
35 -4 47 -15 47 -8 0 -15 -3 -15 -7z"/>
<path d="M1770 1955 c-7 -8 -8 -15 -2 -15 5 0 15 7 22 15 7 8 8 15 2 15 -5 0
-15 -7 -22 -15z"/>
<path d="M3125 1930 c10 -11 20 -18 23 -15 7 6 -18 35 -31 35 -5 0 -2 -9 8
-20z"/>
<path d="M1820 1895 c-7 -8 -8 -15 -2 -15 5 0 15 7 22 15 7 8 8 15 2 15 -5 0
-15 -7 -22 -15z"/>
<path d="M3060 1892 c0 -4 10 -13 23 -21 22 -14 22 -14 3 8 -20 22 -26 25 -26
13z"/>
<path d="M1880 1845 c-7 -8 -8 -15 -2 -15 5 0 15 7 22 15 7 8 8 15 2 15 -5 0
-15 -7 -22 -15z"/>
<path d="M3010 1832 c0 -12 19 -26 26 -19 2 2 -2 10 -11 17 -9 8 -15 8 -15 2z"/>
<path d="M1942 1800 c-7 -11 -8 -20 -3 -20 9 0 24 30 18 36 -1 2 -8 -6 -15
-16z"/>
<path d="M2950 1779 c7 -11 14 -18 17 -15 8 8 -5 36 -17 36 -7 0 -7 -6 0 -21z"/>
<path d="M2003 1755 c-9 -25 4 -29 17 -6 7 15 7 21 0 21 -6 0 -13 -7 -17 -15z"/>
<path d="M2890 1740 c6 -11 12 -20 14 -20 2 0 2 9 -1 20 -3 11 -9 20 -15 20
-5 0 -4 -9 2 -20z"/>
<path d="M1622 1728 c-15 -19 -9 -59 9 -71 20 -13 45 -4 58 21 21 38 -39 83
-67 50z m45 -54 c14 6 15 4 7 -4 -14 -14 -54 -4 -54 12 0 6 6 6 15 -2 8 -7 23
-9 32 -6z"/>
<path d="M2076 1724 c-4 -9 -4 -19 -1 -22 2 -3 7 3 11 12 4 9 4 19 1 22 -2 3
-7 -3 -11 -12z"/>
<path d="M3252 1728 c-7 -7 -12 -16 -12 -22 0 -5 6 -2 13 9 11 13 21 16 43 11
21 -5 25 -4 14 4 -20 13 -43 13 -58 -2z"/>
<path d="M2820 1705 c0 -8 4 -15 10 -15 5 0 7 7 4 15 -4 8 -8 15 -10 15 -2 0
-4 -7 -4 -15z"/>
<path d="M3262 1698 c2 -17 9 -22 26 -21 13 2 21 -1 17 -7 -10 -16 -43 -11
-54 8 -6 9 -11 12 -11 7 0 -28 41 -44 68 -27 20 13 -2 62 -28 62 -16 0 -21 -5
-18 -22z"/>
<path d="M2145 1690 c-4 -12 -5 -24 -2 -27 3 -2 8 5 12 17 4 12 5 24 2 27 -3
2 -8 -5 -12 -17z"/>
<path d="M2747 1680 c3 -11 9 -20 15 -20 5 0 4 9 -2 20 -6 11 -12 20 -14 20
-2 0 -2 -9 1 -20z"/>
<path d="M2221 1664 c0 -11 3 -14 6 -6 3 7 2 16 -1 19 -3 4 -6 -2 -5 -13z"/>
<path d="M2670 1670 c0 -8 5 -22 10 -30 9 -13 10 -13 10 0 0 8 -5 22 -10 30
-9 13 -10 13 -10 0z"/>
<path d="M2291 1643 c0 -25 1 -26 9 -8 12 27 12 35 0 35 -5 0 -10 -12 -9 -27z"/>
<path d="M2372 1635 c0 -16 2 -22 5 -12 2 9 2 23 0 30 -3 6 -5 -1 -5 -18z"/>
<path d="M2602 1640 c0 -14 2 -19 5 -12 2 6 2 18 0 25 -3 6 -5 1 -5 -13z"/>
<path d="M2452 1630 c0 -14 2 -19 5 -12 2 6 2 18 0 25 -3 6 -5 1 -5 -13z"/>
<path d="M2520 1633 c0 -13 5 -23 10 -23 13 0 13 11 0 30 -8 12 -10 11 -10 -7z"/>
<path d="M1815 1559 c4 -24 13 -61 19 -84 l12 -40 13 68 c7 37 17 67 22 67 9
0 13 -45 9 -107 -1 -18 3 -33 9 -33 7 0 11 31 11 84 l0 85 -27 -3 c-24 -3 -27
-8 -29 -45 -3 -50 -13 -67 -15 -25 -1 16 -2 38 -3 48 -1 11 -7 21 -15 24 -10
3 -12 -5 -6 -39z"/>
<path d="M1929 1595 c-6 -43 0 -160 10 -163 8 -3 11 22 11 82 0 51 -4 86 -10
86 -5 0 -10 -2 -11 -5z"/>
<path d="M2990 1574 c0 -3 4 -23 10 -43 5 -20 12 -54 15 -76 8 -45 18 -34 29
30 4 22 9 52 12 68 3 16 1 27 -5 27 -6 0 -11 -15 -11 -32 0 -18 -5 -40 -10
-48 -10 -15 -11 -11 -14 54 -1 18 -26 37 -26 20z"/>
<path d="M2128 1415 c-9 -21 -8 -28 7 -45 31 -34 75 -20 75 25 0 48 -62 63
-82 20z m67 -14 c0 -30 -29 -51 -47 -33 -10 10 -8 12 12 10 20 -2 26 2 28 21
3 21 0 23 -22 19 -14 -3 -26 -1 -26 4 0 5 12 8 28 6 21 -2 27 -8 27 -27z"/>
<path d="M2405 1408 c13 -68 27 -129 30 -126 9 11 15 79 6 74 -6 -4 -13 13
-16 39 -4 25 -12 45 -17 45 -5 0 -7 -14 -3 -32z"/>
<path d="M2451 1406 c0 -29 1 -30 10 -8 17 44 32 13 26 -54 -3 -44 -1 -64 7
-64 7 0 11 27 11 79 l0 79 -27 0 c-25 -1 -28 -5 -27 -32z"/>
<path d="M2730 1425 c-7 -8 -10 -25 -6 -39 11 -45 71 -45 82 0 8 30 -11 54
-41 54 -12 0 -28 -7 -35 -15z m54 -1 c20 -8 21 -38 1 -54 -27 -23 -65 10 -51
45 6 16 24 19 50 9z"/>
<path d="M2740 1401 c0 -24 25 -34 40 -16 15 18 5 35 -21 35 -12 0 -19 -7 -19
-19z"/>
<path d="M2178 1255 c23 -8 75 -16 115 -19 69 -6 68 -5 -33 14 -121 22 -143
24 -82 5z"/>
<path d="M2423 1223 c26 -2 68 -2 95 0 26 2 4 3 -48 3 -52 0 -74 -1 -47 -3z"/>
<path d="M4001 2371 c-3 -89 -63 -314 -116 -436 -66 -151 -121 -242 -227 -377
-224 -283 -551 -481 -933 -564 l-110 -24 75 4 c190 10 470 111 657 237 117 79
230 181 328 294 95 111 211 321 260 470 48 147 83 341 72 410 -3 23 -4 20 -6
-14z"/>
</g>
</svg>
